<?xml version="1.0" standalone="no"?>
<!DOCTYPE svg PUBLIC "-//W3C//DTD SVG 20010904//EN"
 "http://www.w3.org/TR/2001/REC-SVG-20010904/DTD/svg10.dtd">
<svg version="1.0" xmlns="http://www.w3.org/2000/svg"
 width="134.000000pt" height="113.000000pt" viewBox="0 0 134.000000 113.000000"
 preserveAspectRatio="xMidYMid meet">

<g transform="translate(0.000000,113.000000) scale(0.100000,-0.100000)"
fill="#000000" stroke="none">
<path d="M302 964 c-52 -26 -102 -77 -102 -105 0 -11 50 -80 85 -117 1 -1 15
22 31 53 21 40 35 55 50 55 34 0 34 -10 1 -55 -76 -103 -90 -134 -84 -181 4
-38 -1 -56 -29 -110 -42 -81 -43 -119 -5 -170 44 -60 83 -93 152 -128 l64 -33
3 -51 c3 -60 5 -60 86 -32 53 18 59 18 91 3 31 -15 36 -15 59 0 23 15 28 15
82 -3 89 -31 94 -29 94 33 l0 52 64 33 c71 37 147 106 166 151 17 41 7 86 -34
153 -22 37 -30 61 -25 70 23 35 9 83 -50 170 -32 48 -56 89 -53 92 18 18 43 1
71 -49 l32 -56 46 57 46 56 -16 34 c-17 36 -75 79 -124 93 -24 7 -48 2 -119
-25 -85 -32 -92 -33 -151 -22 -45 8 -79 8 -128 0 -64 -10 -69 -10 -155 24 -49
19 -91 34 -93 34 -2 0 -27 -12 -55 -26z m137 -21 l74 -27 -31 -15 c-27 -12
-37 -12 -72 -1 -22 7 -40 19 -40 27 0 8 -4 11 -10 8 -5 -3 -10 -14 -10 -23 0
-9 -14 -46 -31 -82 l-31 -65 -39 45 -38 44 17 31 c16 27 101 84 127 85 6 0 43
-12 84 -27z m586 7 c49 -23 67 -38 87 -70 16 -24 15 -26 -22 -69 l-38 -43 -26
44 c-14 24 -29 59 -32 76 -7 35 -22 51 -33 34 -4 -6 -22 -18 -41 -25 -31 -13
-38 -13 -63 3 l-28 17 68 26 c82 31 79 31 128 7z m-214 -60 c63 -23 141 -86
165 -132 9 -17 11 -27 5 -23 -18 11 -79 -14 -101 -42 -41 -52 -11 -143 52
-162 30 -8 31 -9 7 -10 -14 -1 -41 10 -60 24 -106 76 -190 98 -281 71 -30 -8
-70 -27 -89 -40 -63 -46 -92 -58 -141 -58 -26 0 -45 -4 -42 -9 3 -5 27 -9 53
-9 40 0 59 7 116 45 83 54 153 71 226 56 59 -13 80 -23 132 -65 30 -23 50 -31
96 -34 36 -3 61 0 65 7 5 7 -3 11 -21 12 -21 1 -23 3 -8 6 11 3 26 10 33 16
16 13 22 5 58 -68 13 -27 24 -62 24 -76 0 -54 -87 -140 -181 -179 -26 -11 -31
-11 -43 6 -13 18 -16 17 -80 -8 -64 -26 -68 -26 -96 -10 -28 16 -32 16 -59 1
-26 -15 -31 -15 -86 7 -71 29 -85 30 -92 4 -5 -19 -7 -18 -57 7 -105 53 -166
120 -166 182 0 32 41 124 61 136 6 4 16 2 22 -4 14 -14 82 -14 108 -1 47 26
63 110 29 153 -21 27 -83 53 -100 42 -24 -15 -6 17 36 64 101 112 264 148 415
91z m-377 -195 c21 -19 26 -33 25 -67 l-1 -43 -14 32 c-17 40 -51 61 -61 37
-4 -11 -14 -14 -34 -10 -29 5 -39 -6 -39 -47 0 -18 -2 -19 -10 -7 -13 21 -12
72 3 91 34 44 92 50 131 14z m569 13 c12 -6 27 -18 34 -27 15 -19 16 -70 3
-91 -7 -11 -10 -7 -10 17 0 24 -7 37 -25 49 -24 16 -27 16 -39 -1 -9 -12 -20
-16 -35 -12 -17 4 -24 -1 -36 -26 l-13 -32 -1 43 c-2 71 62 113 122 80z m-450
-526 c-31 -5 -29 -18 5 -30 l27 -10 -28 -1 c-18 -1 -27 -6 -24 -13 2 -7 13
-12 23 -11 11 1 6 -4 -11 -12 -57 -27 -65 -22 -65 43 0 32 3 61 6 64 3 3 24
-1 47 -11 34 -13 38 -17 20 -19z m303 -89 c-3 -3 -24 2 -48 10 -29 11 -36 16
-20 16 12 1 22 5 22 10 0 5 -10 12 -22 14 l-23 4 23 8 c12 4 22 11 22 16 0 5
-10 9 -22 10 -16 0 -10 6 22 18 l45 19 3 -60 c2 -33 1 -63 -2 -65z m-138 60
c2 -10 -6 -27 -18 -38 -17 -15 -24 -16 -45 -7 -34 16 -36 69 -2 81 27 11 61
-8 65 -36z"/>
<path d="M582 565 c-43 -13 -72 -31 -72 -45 0 -4 18 2 41 13 l40 20 35 -34
c33 -32 34 -35 34 -110 l0 -77 -31 -11 c-86 -30 -196 0 -279 75 l-42 38 24 18
c25 19 9 25 -23 8 -16 -9 -49 -58 -49 -75 0 -15 18 -2 23 17 6 20 9 19 52 -21
71 -66 125 -86 218 -83 86 3 127 3 237 0 89 -3 140 17 212 81 43 38 47 40 53
21 6 -18 25 -29 25 -15 0 17 -33 66 -49 75 -32 17 -48 11 -22 -9 l23 -18 -43
-38 c-88 -76 -192 -104 -278 -74 l-31 11 0 77 c0 75 1 78 34 110 l34 33 36
-17 c44 -21 59 -14 22 10 -53 35 -149 44 -224 20z"/>
</g>
</svg>
